<svg width="440" height="166" viewBox="0 0 440 166" fill="none" xmlns="http://www.w3.org/2000/svg">
<path d="M476.233 146.993L423.221 112.697L356.487 69.7028C356.487 69.7028 319.642 45.5837 294.264 37.6434C268.885 29.7031 243.517 25.1362 220.01 26.9569C196.503 28.7775 189.368 32.1758 161.923 43.608C134.477 55.0401 118.19 67.0238 88.6087 69.7028C55.1927 72.7292 33.9693 71.8653 3.8277 52.5547C-14.9628 40.5163 -39.1799 10.5565 -39.1799 10.5565" stroke="url(#paint0_linear_20_179)" stroke-width="3"/>
<path d="M476.164 152.329L423.153 118.033L356.418 75.0382C356.418 75.0382 319.574 50.9191 294.195 42.9788C268.817 35.0385 243.448 30.4716 219.942 32.2922C196.435 34.1129 189.3 37.5112 161.854 48.9433C134.409 60.3755 118.121 72.3592 88.5404 75.0382C55.1244 78.0646 33.901 77.2007 3.7594 57.8901C-15.0311 45.8517 -39.2482 15.8919 -39.2482 15.8919" stroke="url(#paint1_linear_20_179)" stroke-width="3"/>
<path d="M477.668 158.293L424.657 123.997L357.922 81.0028C357.922 81.0028 321.078 56.8836 295.699 48.9433C270.321 41.003 244.952 36.4361 221.445 38.2568C197.939 40.0775 190.804 43.4758 163.358 54.9079C135.913 66.34 119.625 78.3237 90.0443 81.0028C56.6284 84.0291 35.4049 83.1652 5.26331 63.8546C-13.5272 51.8162 -37.7443 21.8564 -37.7443 21.8564" stroke="url(#paint2_linear_20_179)" stroke-width="3"/>
<path d="M477.668 164.258L424.657 129.962L357.922 86.9673C357.922 86.9673 321.078 62.8482 295.699 54.9079C270.321 46.9675 244.952 42.4007 221.445 44.2213C197.939 46.042 190.804 49.4403 163.358 60.8724C135.913 72.3046 119.625 84.2883 90.0443 86.9673C56.6284 89.9937 35.4049 89.1297 5.26331 69.8192C-13.5272 57.7808 -37.7443 27.8209 -37.7443 27.8209" stroke="url(#paint3_linear_20_179)" stroke-width="3"/>
<defs>
<linearGradient id="paint0_linear_20_179" x1="478.899" y1="98.4722" x2="-42.4365" y2="69.8282" gradientUnits="userSpaceOnUse">
<stop stop-color="#16D9EB"/>
<stop offset="1" stop-color="#0C7B85"/>
</linearGradient>
<linearGradient id="paint1_linear_20_179" x1="478.83" y1="103.808" x2="-42.5048" y2="75.1636" gradientUnits="userSpaceOnUse">
<stop stop-color="#16D9EB"/>
<stop offset="1" stop-color="#0C7B85"/>
</linearGradient>
<linearGradient id="paint2_linear_20_179" x1="480.334" y1="109.772" x2="-41.0009" y2="81.1281" gradientUnits="userSpaceOnUse">
<stop stop-color="#16D9EB"/>
<stop offset="1" stop-color="#0C7B85"/>
</linearGradient>
<linearGradient id="paint3_linear_20_179" x1="480.334" y1="115.737" x2="-41.0009" y2="87.0927" gradientUnits="userSpaceOnUse">
<stop stop-color="#16D9EB"/>
<stop offset="1" stop-color="#0C7B85"/>
</linearGradient>
</defs>
</svg>
