<svg width="1440" height="380" viewBox="0 0 1440 380" fill="none" xmlns="http://www.w3.org/2000/svg">
<path d="M1488.53 295.734L1328.19 226.734L1126.34 140.234C1126.34 140.234 1014.9 91.7094 938.135 75.7344C861.372 59.7594 784.642 50.5713 713.541 54.2343C642.441 57.8973 620.861 64.7343 537.847 87.7344C454.833 110.735 405.57 134.844 316.097 140.234C215.024 146.323 150.83 144.585 59.6622 105.734C2.82724 81.5144 -70.4214 21.2385 -70.4214 21.2385" stroke="url(#paint0_linear_17_66)" stroke-width="3"/>
<path d="M1488.32 307.468L1327.98 238.469L1126.13 151.969C1126.13 151.969 1014.69 103.444 937.928 87.4686C861.166 71.4936 784.435 62.3055 713.335 65.9685C642.235 69.6315 620.655 76.4684 537.641 99.4686C454.627 122.469 405.363 146.579 315.89 151.969C214.818 158.057 150.624 156.319 59.4558 117.468C2.62082 93.2486 -70.6278 32.9727 -70.6278 32.9727" stroke="url(#paint1_linear_17_66)" stroke-width="3"/>
<path d="M1492.87 319.468L1332.53 250.469L1130.68 163.969C1130.68 163.969 1019.24 115.444 942.477 99.4686C865.715 83.4936 788.984 74.3055 717.884 77.9685C646.784 81.6315 625.204 88.4684 542.19 111.469C459.176 134.469 409.912 158.579 320.439 163.969C219.367 170.057 155.173 168.319 64.0047 129.468C7.16977 105.249 -66.0789 44.9727 -66.0789 44.9727" stroke="url(#paint2_linear_17_66)" stroke-width="3"/>
<path d="M1492.87 331.468L1332.53 262.469L1130.68 175.969C1130.68 175.969 1019.24 127.444 942.477 111.469C865.715 95.4935 788.984 86.3054 717.884 89.9684C646.784 93.6314 625.204 100.468 542.19 123.469C459.176 146.469 409.912 170.579 320.439 175.969C219.367 182.057 155.173 180.319 64.0047 141.468C7.16977 117.249 -66.0789 56.9726 -66.0789 56.9726" stroke="url(#paint3_linear_17_66)" stroke-width="3"/>
<path d="M1488.53 343.469L1328.19 274.469L1126.34 187.969C1126.34 187.969 1014.9 139.444 938.135 123.469C861.373 107.494 784.642 98.3055 713.542 101.969C642.442 105.632 620.862 112.469 537.848 135.469C454.834 158.469 405.57 182.579 316.097 187.969C215.025 194.057 150.831 192.319 59.6628 153.469C2.82786 129.249 -70.4208 68.9728 -70.4208 68.9728" stroke="url(#paint4_linear_17_66)" stroke-width="3"/>
<path d="M1488.32 354.203L1327.98 285.203L1126.13 198.703C1126.13 198.703 1014.69 150.178 937.929 134.203C861.166 118.228 784.436 109.04 713.335 112.703C642.235 116.366 620.655 123.203 537.641 146.203C454.627 169.203 405.364 193.313 315.891 198.703C214.818 204.792 150.624 203.054 59.4563 164.203C2.62131 139.983 -70.6274 79.707 -70.6274 79.707" stroke="url(#paint5_linear_17_66)" stroke-width="3"/>
<path d="M1492.87 366.203L1332.53 297.203L1130.68 210.703C1130.68 210.703 1019.24 162.178 942.477 146.203C865.715 130.228 788.984 121.04 717.884 124.703C646.784 128.366 625.204 135.203 542.19 158.203C459.176 181.203 409.912 205.313 320.44 210.703C219.367 216.792 155.173 215.054 64.0051 176.203C7.17014 151.983 -66.0785 91.707 -66.0785 91.707" stroke="url(#paint6_linear_17_66)" stroke-width="3"/>
<path d="M1492.87 378.203L1332.53 309.203L1130.68 222.703C1130.68 222.703 1019.24 174.178 942.477 158.203C865.715 142.228 788.984 133.04 717.884 136.703C646.784 140.366 625.204 147.203 542.19 170.203C459.176 193.203 409.912 217.313 320.44 222.703C219.367 228.792 155.173 227.054 64.0051 188.203C7.17014 163.983 -66.0785 103.707 -66.0785 103.707" stroke="url(#paint7_linear_17_66)" stroke-width="3"/>
<defs>
<linearGradient id="paint0_linear_17_66" x1="1496.59" y1="198.115" x2="-74.3134" y2="68.3552" gradientUnits="userSpaceOnUse">
<stop stop-color="#16D9EB"/>
<stop offset="1" stop-color="#0C7B85"/>
</linearGradient>
<linearGradient id="paint1_linear_17_66" x1="1496.39" y1="209.849" x2="-74.5198" y2="80.0894" gradientUnits="userSpaceOnUse">
<stop stop-color="#16D9EB"/>
<stop offset="1" stop-color="#0C7B85"/>
</linearGradient>
<linearGradient id="paint2_linear_17_66" x1="1500.94" y1="221.849" x2="-69.9708" y2="92.0894" gradientUnits="userSpaceOnUse">
<stop stop-color="#16D9EB"/>
<stop offset="1" stop-color="#0C7B85"/>
</linearGradient>
<linearGradient id="paint3_linear_17_66" x1="1500.94" y1="233.849" x2="-69.9708" y2="104.089" gradientUnits="userSpaceOnUse">
<stop stop-color="#16D9EB"/>
<stop offset="1" stop-color="#0C7B85"/>
</linearGradient>
<linearGradient id="paint4_linear_17_66" x1="1496.59" y1="245.85" x2="-74.3128" y2="116.089" gradientUnits="userSpaceOnUse">
<stop stop-color="#16D9EB"/>
<stop offset="1" stop-color="#0C7B85"/>
</linearGradient>
<linearGradient id="paint5_linear_17_66" x1="1496.39" y1="256.584" x2="-74.5193" y2="126.824" gradientUnits="userSpaceOnUse">
<stop stop-color="#16D9EB"/>
<stop offset="1" stop-color="#0C7B85"/>
</linearGradient>
<linearGradient id="paint6_linear_17_66" x1="1500.94" y1="268.584" x2="-69.9705" y2="138.824" gradientUnits="userSpaceOnUse">
<stop stop-color="#16D9EB"/>
<stop offset="1" stop-color="#0C7B85"/>
</linearGradient>
<linearGradient id="paint7_linear_17_66" x1="1500.94" y1="280.584" x2="-69.9705" y2="150.824" gradientUnits="userSpaceOnUse">
<stop stop-color="#16D9EB"/>
<stop offset="1" stop-color="#0C7B85"/>
</linearGradient>
</defs>
</svg>
