<svg width="1440" height="381" viewBox="0 0 1440 381" fill="none" xmlns="http://www.w3.org/2000/svg">
<path d="M-23.8387 84.4685L134.09 153.468L332.9 239.968C332.9 239.968 442.664 288.493 518.27 304.468C593.876 320.443 669.452 329.631 739.482 325.968C809.511 322.305 830.766 315.469 912.531 292.468C994.295 269.468 1042.82 245.358 1130.94 239.968C1230.49 233.88 1293.72 235.618 1383.52 274.468C1439.49 298.688 1511.64 358.964 1511.64 358.964" stroke="url(#paint0_linear_23_6)" stroke-width="3"/>
<path d="M-23.6354 72.7343L134.293 141.734L333.103 228.234C333.103 228.234 442.867 276.759 518.473 292.734C594.08 308.709 669.655 317.897 739.685 314.234C809.715 310.571 830.97 303.734 912.734 280.734C994.498 257.734 1043.02 233.624 1131.15 228.234C1230.7 222.145 1293.92 223.884 1383.72 262.734C1439.7 286.954 1511.84 347.23 1511.84 347.23" stroke="url(#paint1_linear_23_6)" stroke-width="3"/>
<path d="M-28.1158 60.7343L129.813 129.734L328.623 216.234C328.623 216.234 438.386 264.759 513.993 280.734C589.599 296.709 665.175 305.897 735.205 302.234C805.234 298.571 826.489 291.734 908.253 268.734C990.018 245.734 1038.54 221.624 1126.67 216.234C1226.22 210.145 1289.44 211.884 1379.24 250.734C1435.22 274.954 1507.36 335.23 1507.36 335.23" stroke="url(#paint2_linear_23_6)" stroke-width="3"/>
<path d="M-28.1158 48.7346L129.813 117.734L328.623 204.234C328.623 204.234 438.386 252.759 513.993 268.734C589.599 284.71 665.175 293.898 735.205 290.235C805.234 286.572 826.489 279.735 908.253 256.734C990.018 233.734 1038.54 209.624 1126.67 204.234C1226.22 198.146 1289.44 199.884 1379.24 238.735C1435.22 262.954 1507.36 323.23 1507.36 323.23" stroke="url(#paint3_linear_23_6)" stroke-width="3"/>
<path d="M-23.8388 36.7346L134.09 105.734L332.9 192.234C332.9 192.234 442.663 240.759 518.27 256.734C593.876 272.71 669.452 281.898 739.481 278.235C809.511 274.572 830.766 267.735 912.53 244.734C994.295 221.734 1042.82 197.624 1130.94 192.234C1230.49 186.146 1293.72 187.884 1383.52 226.735C1439.49 250.954 1511.64 311.23 1511.64 311.23" stroke="url(#paint4_linear_23_6)" stroke-width="3"/>
<path d="M-23.6355 26.0002L134.293 95.0001L333.103 181.5C333.103 181.5 442.867 230.025 518.473 246C594.079 261.975 669.655 271.163 739.685 267.5C809.714 263.837 830.97 257 912.734 234C994.498 211 1043.02 186.89 1131.15 181.5C1230.7 175.411 1293.92 177.149 1383.72 216C1439.7 240.22 1511.84 300.496 1511.84 300.496" stroke="url(#paint5_linear_23_6)" stroke-width="3"/>
<path d="M-28.1158 14.0002L129.813 83.0001L328.623 169.5C328.623 169.5 438.386 218.025 513.993 234C589.599 249.975 665.175 259.163 735.205 255.5C805.234 251.837 826.489 245 908.253 222C990.018 199 1038.54 174.89 1126.67 169.5C1226.22 163.411 1289.44 165.149 1379.24 204C1435.22 228.22 1507.36 288.496 1507.36 288.496" stroke="url(#paint6_linear_23_6)" stroke-width="3"/>
<path d="M-28.1158 2.0002L129.813 71.0001L328.623 157.5C328.623 157.5 438.386 206.025 513.993 222C589.599 237.975 665.175 247.163 735.205 243.5C805.234 239.837 826.489 233 908.253 210C990.018 187 1038.54 162.89 1126.67 157.5C1226.22 151.411 1289.44 153.149 1379.24 192C1435.22 216.22 1507.36 276.496 1507.36 276.496" stroke="url(#paint7_linear_23_6)" stroke-width="3"/>
<defs>
<linearGradient id="paint0_linear_23_6" x1="-31.7808" y1="182.088" x2="1515.79" y2="307.995" gradientUnits="userSpaceOnUse">
<stop stop-color="#16D9EB"/>
<stop offset="1" stop-color="#0C7B85"/>
</linearGradient>
<linearGradient id="paint1_linear_23_6" x1="-31.5775" y1="170.353" x2="1515.99" y2="296.261" gradientUnits="userSpaceOnUse">
<stop stop-color="#16D9EB"/>
<stop offset="1" stop-color="#0C7B85"/>
</linearGradient>
<linearGradient id="paint2_linear_23_6" x1="-36.0579" y1="158.353" x2="1511.51" y2="284.261" gradientUnits="userSpaceOnUse">
<stop stop-color="#16D9EB"/>
<stop offset="1" stop-color="#0C7B85"/>
</linearGradient>
<linearGradient id="paint3_linear_23_6" x1="-36.0579" y1="146.354" x2="1511.51" y2="272.261" gradientUnits="userSpaceOnUse">
<stop stop-color="#16D9EB"/>
<stop offset="1" stop-color="#0C7B85"/>
</linearGradient>
<linearGradient id="paint4_linear_23_6" x1="-31.7809" y1="134.354" x2="1515.79" y2="260.261" gradientUnits="userSpaceOnUse">
<stop stop-color="#16D9EB"/>
<stop offset="1" stop-color="#0C7B85"/>
</linearGradient>
<linearGradient id="paint5_linear_23_6" x1="-31.5777" y1="123.619" x2="1515.99" y2="249.527" gradientUnits="userSpaceOnUse">
<stop stop-color="#16D9EB"/>
<stop offset="1" stop-color="#0C7B85"/>
</linearGradient>
<linearGradient id="paint6_linear_23_6" x1="-36.0579" y1="111.619" x2="1511.51" y2="237.527" gradientUnits="userSpaceOnUse">
<stop stop-color="#16D9EB"/>
<stop offset="1" stop-color="#0C7B85"/>
</linearGradient>
<linearGradient id="paint7_linear_23_6" x1="-36.0579" y1="99.6192" x2="1511.51" y2="225.527" gradientUnits="userSpaceOnUse">
<stop stop-color="#16D9EB"/>
<stop offset="1" stop-color="#0C7B85"/>
</linearGradient>
</defs>
</svg>
