<svg width="440" height="167" viewBox="0 0 440 167" fill="none" xmlns="http://www.w3.org/2000/svg">
<path d="M-16.2325 19.2645L36.7791 53.5605L103.514 96.5549C103.514 96.5549 140.358 120.674 165.736 128.614C191.115 136.555 216.483 141.122 239.99 139.301C263.497 137.48 270.632 134.082 298.077 122.65C325.523 111.218 341.81 99.234 371.391 96.5549C404.807 93.5286 426.031 94.3925 456.172 113.703C474.963 125.741 499.18 155.701 499.18 155.701" stroke="url(#paint0_linear_20_220)" stroke-width="3"/>
<path d="M-16.1643 13.9292L36.8474 48.2252L103.582 91.2196C103.582 91.2196 140.426 115.339 165.805 123.279C191.183 131.219 216.552 135.786 240.059 133.966C263.565 132.145 270.7 128.747 298.146 117.314C325.591 105.882 341.879 93.8987 371.46 91.2196C404.876 88.1933 426.099 89.0572 456.241 108.368C475.031 120.406 499.248 150.366 499.248 150.366" stroke="url(#paint1_linear_20_220)" stroke-width="3"/>
<path d="M-17.6682 7.96455L35.3435 42.2606L102.078 85.255C102.078 85.255 138.922 109.374 164.301 117.314C189.679 125.255 215.048 129.822 238.555 128.001C262.061 126.18 269.196 122.782 296.642 111.35C324.087 99.9178 340.375 87.9341 369.956 85.255C403.372 82.2287 424.595 83.0926 454.737 102.403C473.527 114.442 497.744 144.401 497.744 144.401" stroke="url(#paint2_linear_20_220)" stroke-width="3"/>
<path d="M-17.6682 2.00008L35.3435 36.2961L102.078 79.2905C102.078 79.2905 138.922 103.41 164.301 111.35C189.679 119.29 215.048 123.857 238.555 122.037C262.061 120.216 269.196 116.818 296.642 105.385C324.087 93.9533 340.375 81.9696 369.956 79.2905C403.372 76.2642 424.595 77.1281 454.737 96.4387C473.527 108.477 497.744 138.437 497.744 138.437" stroke="url(#paint3_linear_20_220)" stroke-width="3"/>
<defs>
<linearGradient id="paint0_linear_20_220" x1="-18.8985" y1="67.7856" x2="502.437" y2="96.4296" gradientUnits="userSpaceOnUse">
<stop stop-color="#16D9EB"/>
<stop offset="1" stop-color="#0C7B85"/>
</linearGradient>
<linearGradient id="paint1_linear_20_220" x1="-18.8302" y1="62.4502" x2="502.505" y2="91.0942" gradientUnits="userSpaceOnUse">
<stop stop-color="#16D9EB"/>
<stop offset="1" stop-color="#0C7B85"/>
</linearGradient>
<linearGradient id="paint2_linear_20_220" x1="-20.3341" y1="56.4856" x2="501.001" y2="85.1296" gradientUnits="userSpaceOnUse">
<stop stop-color="#16D9EB"/>
<stop offset="1" stop-color="#0C7B85"/>
</linearGradient>
<linearGradient id="paint3_linear_20_220" x1="-20.3341" y1="50.5212" x2="501.001" y2="79.1652" gradientUnits="userSpaceOnUse">
<stop stop-color="#16D9EB"/>
<stop offset="1" stop-color="#0C7B85"/>
</linearGradient>
</defs>
</svg>
