<svg width="58" height="58" viewBox="0 0 58 58" fill="none" xmlns="http://www.w3.org/2000/svg">
<circle cx="29" cy="29" r="27" fill="white" stroke="#00BFFF" stroke-width="4"/>
<path d="M16.963 22.0556C16.963 21.4416 17.2068 20.8528 17.6409 20.4187C18.0751 19.9846 18.6638 19.7407 19.2778 19.7407H37.7963C38.4102 19.7407 38.999 19.9846 39.4331 20.4187C39.8672 20.8528 40.1111 21.4416 40.1111 22.0556V35.9444C40.1111 36.5584 39.8672 37.1472 39.4331 37.5813C38.999 38.0154 38.4102 38.2593 37.7963 38.2593H19.2778C18.6638 38.2593 18.0751 38.0154 17.6409 37.5813C17.2068 37.1472 16.963 36.5584 16.963 35.9444V22.0556Z" stroke="#03BAFF" stroke-width="3.83333" stroke-linecap="round" stroke-linejoin="round"/>
<path d="M16.963 20.6667L25.6447 27.6123C26.4656 28.2691 27.4857 28.627 28.537 28.627C29.5884 28.627 30.6085 28.2691 31.4294 27.6123L40.1111 20.6667" stroke="#03BAFF" stroke-width="3.83333" stroke-linecap="round" stroke-linejoin="round"/>
</svg>
